# Blender 4.4.3
# www.blender.org
mtllib parkinglot.mtl
o Cube
v -2.000000 0.020000 1.000000
v -2.000000 0.020000 -1.000000
v -2.000000 -0.020000 1.000000
v -2.000000 -0.020000 -1.000000
v 2.000000 0.020000 1.000000
v 2.000000 0.020000 -1.000000
v 2.000000 -0.020000 1.000000
v 2.000000 -0.020000 -1.000000
vn -1.0000 -0.0000 -0.0000
vn -0.0000 -1.0000 -0.0000
vn 1.0000 -0.0000 -0.0000
vn -0.0000 1.0000 -0.0000
vn -0.0000 -0.0000 1.0000
vn -0.0000 -0.0000 -1.0000
vt 0.002594 -3.982562
vt 0.997406 -3.982562
vt 0.997406 -1.987442
vt 0.002594 -1.987442
vt 0.997406 0.007679
vt 0.002594 0.007679
vt 0.997406 2.002800
vt 0.002594 2.002800
vt 0.997406 3.997920
vt 0.002594 3.997920
vt -0.992218 0.007679
vt -0.992218 2.002800
vt 1.992218 0.007679
vt 1.992218 2.002800
s 0
usemtl Material.002
f 1/1/1 2/2/1 4/3/1 3/4/1
f 3/4/2 4/3/2 8/5/2 7/6/2
f 7/6/3 8/5/3 6/7/3 5/8/3
f 5/8/4 6/7/4 2/9/4 1/10/4
f 3/11/5 7/6/5 5/8/5 1/12/5
f 8/5/6 4/13/6 2/14/6 6/7/6
