# Blender 4.4.3
# www.blender.org
mtllib buildingblack.mtl
o Cube
v -2.000000 5.000000 3.000000
v -2.000000 5.000000 -3.000000
v -2.000000 -5.000000 3.000000
v -2.000000 -5.000000 -3.000000
v 2.000000 5.000000 3.000000
v 2.000000 5.000000 -3.000000
v 2.000000 -5.000000 3.000000
v 2.000000 -5.000000 -3.000000
vn -1.0000 -0.0000 -0.0000
vn -0.0000 -1.0000 -0.0000
vn 1.0000 -0.0000 -0.0000
vn -0.0000 1.0000 -0.0000
vn -0.0000 -0.0000 1.0000
vn -0.0000 -0.0000 -1.0000
vt -0.086662 -0.149566
vt 1.086662 -0.149566
vt 1.086662 0.175217
vt -0.086662 0.175217
vt 1.086662 0.500000
vt -0.086662 0.500000
vt 1.086662 0.824783
vt -0.086662 0.824783
vt 1.086662 1.149566
vt -0.086662 1.149566
vt -1.259986 0.500000
vt -1.259986 0.824783
vt 2.259986 0.500000
vt 2.259986 0.824783
s 0
usemtl Material.002
f 1/1/1 2/2/1 4/3/1 3/4/1
f 3/4/2 4/3/2 8/5/2 7/6/2
f 7/6/3 8/5/3 6/7/3 5/8/3
f 5/8/4 6/7/4 2/9/4 1/10/4
f 3/11/5 7/6/5 5/8/5 1/12/5
f 8/5/6 4/13/6 2/14/6 6/7/6
