# Blender 4.4.3
# www.blender.org
mtllib mutiaraville.mtl
o Cube
v -2.000000 1.000000 3.000000
v -2.000000 1.000000 -3.000000
v -2.000000 -1.000000 3.000000
v -2.000000 -1.000000 -3.000000
v 2.000000 1.000000 3.000000
v 2.000000 1.000000 -3.000000
v 2.000000 -1.000000 3.000000
v 2.000000 -1.000000 -3.000000
vn -1.0000 -0.0000 -0.0000
vn -0.0000 -1.0000 -0.0000
vn 1.0000 -0.0000 -0.0000
vn -0.0000 1.0000 -0.0000
vn -0.0000 -0.0000 1.0000
vn -0.0000 -0.0000 -1.0000
vt 0.026633 0.000000
vt 0.974057 0.000000
vt 0.974057 0.244084
vt 0.026633 0.244084
vt 0.974057 0.268100
vt 0.026633 0.268100
vt 0.974057 0.510517
vt 0.026633 0.510517
vt 0.974057 1.000000
vt 0.026633 1.000000
vt 0.002700 0.268100
vt 0.002700 0.510517
vt 0.999796 0.268100
vt 0.999796 0.510517
s 0
usemtl Material.003
f 1/1/1 2/2/1 4/3/1 3/4/1
f 3/4/2 4/3/2 8/5/2 7/6/2
f 7/6/3 8/5/3 6/7/3 5/8/3
f 5/8/4 6/7/4 2/9/4 1/10/4
f 3/11/5 7/6/5 5/8/5 1/12/5
f 8/5/6 4/13/6 2/14/6 6/7/6
o Cube.001
v -1.500000 7.953931 2.889336
v -1.500000 7.953931 -1.110664
v -1.500000 0.953931 2.889337
v -1.500000 0.953931 -1.110664
v 1.500000 7.953931 2.889336
v 1.500000 7.953931 -1.110664
v 1.500000 0.953931 2.889337
v 1.500000 0.953931 -1.110664
vn -1.0000 -0.0000 -0.0000
vn -0.0000 -1.0000 -0.0000
vn 1.0000 -0.0000 -0.0000
vn -0.0000 1.0000 -0.0000
vn -0.0000 -0.0000 1.0000
vn -0.0000 -0.0000 -1.0000
vt 0.323333 0.000000
vt 0.665833 0.000000
vt 0.665833 0.486235
vt 0.323333 0.486235
vt 0.665833 0.503307
vt 0.323333 0.503307
vt 0.665833 0.989027
vt 0.323333 0.989027
vt 0.665833 1.000000
vt 0.323333 1.000000
vt 0.003208 0.503307
vt 0.003208 0.989027
vt 0.996792 0.503307
vt 0.996792 0.989027
s 0
usemtl Material.004
f 9/15/7 10/16/7 12/17/7 11/18/7
f 11/18/8 12/17/8 16/19/8 15/20/8
f 15/20/9 16/19/9 14/21/9 13/22/9
f 13/22/10 14/21/10 10/23/10 9/24/10
f 11/25/11 15/20/11 13/22/11 9/26/11
f 16/19/12 12/27/12 10/28/12 14/21/12
